<svg xmlns="http://www.w3.org/2000/svg" width="47" height="57" viewBox="0 0 47 57" fill="none">
  <path fill-rule="evenodd" clip-rule="evenodd" d="M23.5 0C14.9068 0 7.94057 6.96619 7.94057 15.5594C7.94057 22.654 12.6888 28.6395 19.1808 30.5115C14.0557 31.136 9.65991 32.9487 6.34845 36.2123C2.13385 40.366 0 46.5494 0 54.6184C0 55.7447 0.912832 56.6572 2.03882 56.6572C3.16484 56.6572 4.07763 55.7447 4.07763 54.6184C4.07763 47.2357 6.02133 42.2597 9.21069 39.1165C12.406 35.9674 17.1764 34.3379 23.4997 34.3379C29.8232 34.3379 34.5937 35.9674 37.7893 39.1166C40.9784 42.2597 42.9224 47.2357 42.9224 54.6184C42.9224 55.7447 43.8349 56.6572 44.9612 56.6572C46.087 56.6576 47 55.7447 47 54.6188C47 46.5494 44.8659 40.366 40.6513 36.2122C37.3399 32.9488 32.944 31.1361 27.819 30.5115C34.3108 28.6396 39.0593 22.654 39.0593 15.5594C39.0593 6.96619 32.0932 0 23.5 0ZM12.0182 15.5594C12.0182 9.2182 17.1588 4.07763 23.5 4.07763C29.8411 4.07763 34.9817 9.2182 34.9817 15.5594C34.9817 21.9006 29.8411 27.0411 23.5 27.0411C17.1588 27.0411 12.0182 21.9006 12.0182 15.5594Z" fill="#04BF8A"/>
</svg>